<svg width="832" height="832" viewBox="0 0 832 832" fill="none" xmlns="http://www.w3.org/2000/svg">
<circle cx="416" cy="416" r="416" fill="white"/>
<path d="M427.376 348.992C416.634 349.852 408.094 351.194 401.756 353.021C395.525 354.739 391.39 358.016 389.349 362.85L300.726 583.279H284.129L188.738 365.105C184.764 356.297 172.356 350.926 151.517 348.992C149.69 341.902 149.905 334.974 152.161 328.206C201.897 329.71 245.027 329.925 281.551 328.851C283.699 334.974 283.699 341.795 281.551 349.314C267.693 350.389 258.992 351.57 255.447 352.859C251.902 354.148 250.882 356.78 252.386 360.755L307.654 489.178L358.733 360.755C359.378 359.036 358.895 357.532 357.283 356.243C355.779 354.847 353.201 353.719 349.549 352.859C346.004 352 342.405 351.302 338.753 350.765C335.101 350.228 330.643 349.744 325.379 349.314C323.66 342.225 323.875 335.296 326.023 328.528C361.473 329.817 395.042 329.71 426.731 328.206C428.88 334.974 429.095 341.902 427.376 348.992ZM422.059 342.708C422.918 339.593 422.918 337.068 422.059 335.135C407.986 335.779 393.592 336.102 378.875 336.102C364.803 336.102 348.851 335.779 331.019 335.135C330.159 337.068 330.159 339.593 331.019 342.708C335.853 343.138 339.881 343.567 343.104 343.997C346.434 344.427 350.462 345.232 355.188 346.414C359.915 347.596 363.191 349.422 365.018 351.893C366.951 354.363 367.273 357.21 365.984 360.433L299.275 528.172L228.055 362.527C224.939 355.223 226.175 350.496 231.761 348.348C237.454 346.092 251.956 344.212 275.267 342.708C276.126 339.593 276.126 337.068 275.267 335.135C243.577 336.639 204.1 336.639 156.834 335.135C155.867 337.068 155.867 339.593 156.834 342.708C177.029 344.642 189.651 351.248 194.7 362.527L288.479 576.673H296.053L383.226 360.433C386.233 354.31 390.96 350.066 397.405 347.703C403.958 345.232 412.176 343.567 422.059 342.708ZM536.785 323.211C552.146 323.211 566.272 325.359 579.163 329.656C592.054 333.953 603.655 336.746 613.968 338.035C608.274 358.016 608.06 379.554 613.323 402.649C607.845 407.269 601.561 409.954 594.471 410.706C593.611 408.665 592.054 404.422 589.798 397.977C587.649 391.424 585.555 386.053 583.514 381.863C581.58 377.674 578.841 372.894 575.296 367.522C571.858 362.151 567.239 357.908 561.438 354.793C555.745 351.57 549.192 349.368 541.78 348.187C530.931 349.153 522.552 352.483 516.644 358.177C510.735 363.87 507.781 371.229 507.781 380.252C507.781 389.49 510.145 397.117 514.871 403.133C519.598 409.041 525.721 413.499 533.24 416.507C540.867 419.407 549.246 421.985 558.377 424.241C567.508 426.39 576.585 429.075 585.608 432.298C594.632 435.413 602.903 439.549 610.423 444.705C618.05 449.754 624.227 457.327 628.953 467.425C633.68 477.522 636.043 489.822 636.043 504.324C636.043 521.941 630.94 537.088 620.735 549.764C610.53 562.439 598.499 571.517 584.642 576.995C570.784 582.474 556.604 585.213 542.103 585.213C510.198 585.213 478.616 578.177 447.356 564.104C448.001 550.247 448.323 541.761 448.323 538.646C448.323 521.243 446.658 502.552 443.328 482.571C452.996 477.952 463.792 477.737 475.716 481.927C479.69 506.312 487.371 525.003 498.758 538.001C510.252 550.999 522.82 558.25 536.463 559.754C549.246 558.895 559.075 554.759 565.95 547.347C572.933 539.827 576.424 530.32 576.424 518.826C576.424 509.158 574.168 500.994 569.656 494.334C565.145 487.566 559.183 482.356 551.771 478.704C544.358 474.944 536.302 471.561 527.601 468.553C519.007 465.545 510.306 462.376 501.497 459.046C492.688 455.608 484.578 451.526 477.166 446.8C469.861 442.073 463.953 435.467 459.441 426.98C454.93 418.494 452.674 408.182 452.674 396.043C452.674 385.086 454.393 375.257 457.83 366.556C461.375 357.854 465.94 350.872 471.526 345.608C477.22 340.345 483.826 335.94 491.346 332.396C498.973 328.851 506.492 326.434 513.904 325.145C521.424 323.855 529.051 323.211 536.785 323.211ZM536.785 329.817C527.762 329.817 519.007 330.892 510.521 333.04C502.034 335.081 493.763 338.465 485.706 343.191C477.757 347.918 471.365 354.847 466.531 363.978C461.697 373.108 459.28 383.797 459.28 396.043C459.28 406.893 461.536 416.238 466.048 424.08C470.56 431.814 476.468 437.83 483.772 442.127C491.185 446.424 499.295 450.237 508.104 453.567C516.912 456.79 525.613 460.066 534.207 463.396C542.908 466.727 550.965 470.486 558.377 474.676C565.789 478.865 571.751 484.72 576.263 492.239C580.774 499.651 583.03 508.514 583.03 518.826C583.03 533.113 578.465 544.661 569.334 553.47C560.203 562.278 547.259 566.683 530.501 566.683C514.388 566.683 499.402 559.969 485.545 546.541C471.688 533.113 462.557 513.025 458.152 486.277C456.004 484.881 453.479 484.881 450.579 486.277C453.479 503.143 454.93 520.599 454.93 538.646C454.93 543.694 454.715 550.838 454.285 560.076C480.926 572.43 506.331 578.606 530.501 578.606C550.481 578.606 568.958 572.698 585.931 560.882C602.903 548.958 611.39 532.308 611.39 510.931C611.39 498.792 609.026 488.533 604.3 480.154C599.573 471.668 593.396 465.062 585.77 460.335C578.143 455.608 569.764 451.526 560.633 448.089C551.502 444.651 542.425 441.429 533.401 438.421C524.378 435.306 516.053 431.868 508.426 428.108C500.906 424.349 494.783 419.031 490.057 412.156C485.33 405.174 482.967 396.741 482.967 386.858C482.967 373.001 487.64 361.937 496.985 353.665C506.331 345.394 519.598 341.258 536.785 341.258C566.648 341.258 587.22 361.937 598.499 403.294C601.829 403.831 604.139 403.079 605.428 401.038C601.883 374.827 594.095 356.404 582.063 345.77C570.14 335.135 555.047 329.817 536.785 329.817Z" fill="black"/>
</svg>
